<svg id="visual" viewBox="0 0 900 600" width="900" height="600" xmlns="http://www.w3.org/2000/svg" xmlns:xlink="http://www.w3.org/1999/xlink" version="1.1"><rect x="0" y="0" width="900" height="600" fill="#002233"></rect><path d="M0 422L21.5 424.3C43 426.7 86 431.3 128.8 429.7C171.7 428 214.3 420 257.2 424C300 428 343 444 385.8 451.2C428.7 458.3 471.3 456.7 514.2 464.2C557 471.7 600 488.3 642.8 491.8C685.7 495.3 728.3 485.7 771.2 465.7C814 445.7 857 415.3 878.5 400.2L900 385L900 601L878.5 601C857 601 814 601 771.2 601C728.3 601 685.7 601 642.8 601C600 601 557 601 514.2 601C471.3 601 428.7 601 385.8 601C343 601 300 601 257.2 601C214.3 601 171.7 601 128.8 601C86 601 43 601 21.5 601L0 601Z" fill="#0066FF" stroke-linecap="round" stroke-linejoin="miter"></path></svg>