<svg width="24" height="24" fill="none" xmlns="http://www.w3.org/2000/svg"><path d="M19.555 11.908a1.551 1.551 0 01-.262-1.818 1.548 1.548 0 00-1.024-2.243 1.55 1.55 0 01-1.202-1.387 1.551 1.551 0 00-2.075-1.333 1.55 1.55 0 01-1.76-.517 1.552 1.552 0 00-2.467 0c-.408.54-1.122.75-1.759.518A1.549 1.549 0 006.932 6.46 1.55 1.55 0 015.73 7.848a1.548 1.548 0 00-1.024 2.242 1.55 1.55 0 01-.261 1.818 1.549 1.549 0 00.35 2.44 1.55 1.55 0 01.763 1.67 1.55 1.55 0 001.614 1.862 1.55 1.55 0 011.545.992 1.55 1.55 0 002.365.695 1.548 1.548 0 011.836 0 1.55 1.55 0 002.366-.695 1.549 1.549 0 011.544-.992 1.549 1.549 0 001.614-1.863 1.55 1.55 0 01.763-1.67 1.548 1.548 0 00.35-2.44zm-8.388 3.62l-3-2.91 1.238-1.238 1.762 1.67 3.761-3.855 1.238 1.238-5 5.094z" fill="#6A57DC"/></svg>